<?xml version="1.0" encoding="utf-8"?>
<!-- Generator: Adobe Illustrator 19.0.0, SVG Export Plug-In . SVG Version: 6.00 Build 0)  -->
<svg version="1.1" id="ico_camera" xmlns="http://www.w3.org/2000/svg" xmlns:xlink="http://www.w3.org/1999/xlink" x="0px" y="0px"
	 width="48px" height="48px" viewBox="0 0 48 48" style="enable-background:new 0 0 48 48;" xml:space="preserve">
<style type="text/css">
	.st0{fill:none;}
	.st1{fill:#FF6600;}
</style>
<rect class="st0" width="48" height="48"/>
<path class="st1" d="M38,6c2.2,0,4,1.8,4,4v28c0,2.2-1.8,4-4,4H10c-2.2,0-4-1.8-4-4V10c0-2.2,1.8-4,4-4H38 M38,4H10
	c-3.3,0-6,2.7-6,6v28c0,3.3,2.7,6,6,6h28c3.3,0,6-2.7,6-6V10C44,6.7,41.3,4,38,4L38,4z"/>
<path class="st1" d="M24,15c5,0,9,4,9,9s-4,9-9,9s-9-4-9-9S19,15,24,15 M24,13c-6.1,0-11,4.9-11,11c0,6.1,4.9,11,11,11
	c6.1,0,11-4.9,11-11C35,17.9,30.1,13,24,13L24,13z"/>
<path class="st1" d="M24,12c6.6,0,12,5.4,12,12c0,6.6-5.4,12-12,12c-6.6,0-12-5.4-12-12C12,17.4,17.4,12,24,12 M24,11
	c-7.2,0-13,5.8-13,13s5.8,13,13,13s13-5.8,13-13S31.2,11,24,11L24,11z"/>
<path class="st1" d="M36,11c0.6,0,1,0.4,1,1s-0.4,1-1,1c-0.6,0-1-0.4-1-1S35.4,11,36,11 M36,10c-1.1,0-2,0.9-2,2s0.9,2,2,2
	c1.1,0,2-0.9,2-2S37.1,10,36,10L36,10z"/>
</svg>
