<?xml version="1.0" encoding="utf-8"?>
<!-- Generator: Adobe Illustrator 19.0.0, SVG Export Plug-In . SVG Version: 6.00 Build 0)  -->
<svg version="1.1" id="ico_ID" xmlns="http://www.w3.org/2000/svg" xmlns:xlink="http://www.w3.org/1999/xlink" x="0px" y="0px"
	 width="48px" height="48px" viewBox="0 0 48 48" style="enable-background:new 0 0 48 48;" xml:space="preserve">
<style type="text/css">
	.st0{fill:none;}
	.st1{fill:#FF6600;}
</style>
<rect class="st0" width="48" height="48"/>
<path class="st1" d="M42,9c2.2,0,4,1.8,4,4v22c0,2.2-1.8,4-4,4H6c-2.2,0-4-1.8-4-4V13c0-2.2,1.8-4,4-4H42 M42,7H6c-3.3,0-6,2.7-6,6
	v22c0,3.3,2.7,6,6,6h36c3.3,0,6-2.7,6-6V13C48,9.7,45.3,7,42,7L42,7z"/>
<path class="st1" d="M16,31.1c4.3,0,7.8,3.4,8.7,7.8H7.3C8.2,34.4,11.7,31.1,16,31.1 M16,29C9.9,29,5,34.4,5,41h22
	C27,34.4,22.1,29,16,29L16,29z"/>
<path class="st1" d="M16,17c2.2,0,4,1.8,4,4s-1.8,4-4,4c-2.2,0-4-1.8-4-4S13.8,17,16,17 M16,15c-3.3,0-6,2.7-6,6s2.7,6,6,6
	c3.3,0,6-2.7,6-6S19.3,15,16,15L16,15z"/>
<rect x="28" y="19" class="st1" width="15" height="2"/>
<rect x="28" y="23" class="st1" width="15" height="2"/>
<rect x="28" y="27" class="st1" width="15" height="2"/>
</svg>
