<?xml version="1.0" encoding="utf-8"?>
<!DOCTYPE svg PUBLIC "-//W3C//DTD SVG 1.1//EN" "http://www.w3.org/Graphics/SVG/1.1/DTD/svg11.dtd">
<svg version="1.1" xmlns="http://www.w3.org/2000/svg" xmlns:xlink="http://www.w3.org/1999/xlink" x="0px" y="0px"
	 width="364" height="420" viewBox="0 0 364 420" enable-background="new 0 0 364 420" xml:space="preserve">
<g>
	<g>
		<defs>
			<rect id="SVGID_1_" y="0" width="364" height="420"/>
		</defs>
		<clipPath id="SVGID_2_">
			<use xlink:href="#SVGID_1_"  overflow="visible"/>
		</clipPath>
		<path clip-path="url(#SVGID_2_)" fill="#A34F39" d="M308.77,89.574c4,0,7.241,3.245,7.241,7.246c0,4.002-3.241,7.247-7.241,7.247
			v6.582c8.82-2.265,15.35-10.25,15.35-19.782c0-4.622-1.551-8.87-4.136-12.295c3.022-1.48,5.123-4.558,5.123-8.15
			c0-5.027-4.072-9.101-9.096-9.101c-5.021,0-9.094,4.074-9.094,9.101c0,0.097,0.025,0.188,0.028,0.284
			c-1.063-0.172-2.146-0.284-3.26-0.284h-7.155c-10.571,0-19.142,8.574-19.142,19.152l22.751-11.197L308.77,89.574z"/>
		<path clip-path="url(#SVGID_2_)" fill="#FFD1AA" d="M308.77,89.574l-8.63-11.197l-22.751,11.197h-0.001v9.824
			c0,7.247,5.871,13.123,13.115,13.123h2.577v7.423l0.388-0.387l7.845,6.249l7.457-5.94v-7.345v-1.872v-6.582
			c4,0,7.241-3.245,7.241-7.247C316.011,92.819,312.77,89.574,308.77,89.574"/>
		<path clip-path="url(#SVGID_2_)" fill="#F2F2F2" d="M363.455,171.739l-8.424-26.026c-3.842-11.869-14.889-19.908-27.356-19.908
			h-12.267l-6.25,7.752l-2.84-2.805l-5.006-4.947l-5.008,4.947l-2.838,2.805l-6.25-7.752h-12.705
			c-12.63,0-23.78,8.247-27.489,20.328l-7.903,25.768c-2.179,7.097,3.126,14.278,10.545,14.278h15.585l3.604,18.154h64.144
			l3.604-18.154h16.36C360.45,186.18,365.762,178.87,363.455,171.739"/>
		<polygon clip-path="url(#SVGID_2_)" fill="#CCC2C5" points="293.467,119.557 293.079,119.944 287.217,125.806 293.467,133.558 
			296.305,130.753 301.313,125.806 		"/>
		<polygon clip-path="url(#SVGID_2_)" fill="#CCC2C5" points="309.157,119.556 309.157,119.556 308.77,119.866 301.313,125.805 
			306.318,130.752 309.157,133.557 315.408,125.805 		"/>
		<path clip-path="url(#SVGID_2_)" fill="#EC7A1E" d="M332.996,204.334L332.996,204.334h-64.144
			c-5.698,12.385-8.437,25.928-7.992,39.557l3.295,101.18h19.869h33.799h19.871l3.294-101.181
			C341.433,230.262,338.694,216.719,332.996,204.334"/>
		<path clip-path="url(#SVGID_2_)" fill="#6F3D5A" d="M265.04,411.976H254.5l-1.088,0.614c-1.245,0.702-2.015,2.02-2.015,3.449
			c0,2.188,1.772,3.961,3.958,3.961h7.691l10.272-5.34V420h4.131v-14.58L265.04,411.976z"/>
		<path clip-path="url(#SVGID_2_)" fill="#6F3D5A" d="M323.32,411.976h-10.541l-1.088,0.614c-1.244,0.702-2.014,2.02-2.014,3.449
			c0,2.188,1.771,3.961,3.958,3.961h7.69l10.272-5.34V420h4.131v-14.58L323.32,411.976z"/>
		<polygon clip-path="url(#SVGID_2_)" fill="#FFD1AA" points="284.024,345.069 264.155,345.069 266.119,405.421 254.5,411.976 
			265.041,411.976 277.45,405.421 		"/>
		<polygon clip-path="url(#SVGID_2_)" fill="#FFD1AA" points="337.694,345.069 317.824,345.069 324.398,405.421 312.779,411.976 
			323.319,411.976 335.73,405.421 		"/>
		<polygon clip-path="url(#SVGID_2_)" fill="#FFD1AA" points="266.785,159.579 262.67,166.797 272.545,169.845 282.339,169.845 
			282.339,164.711 274.409,159.579 		"/>
		<polygon clip-path="url(#SVGID_2_)" fill="#FFD1AA" points="335.84,159.579 339.955,166.797 330.08,169.845 320.286,169.845 
			320.286,164.711 328.214,159.579 		"/>
		<path clip-path="url(#SVGID_2_)" fill="#CCC2C5" d="M303.013,139.961c0,0.94-0.761,1.703-1.7,1.703
			c-0.94,0-1.701-0.763-1.701-1.703s0.761-1.701,1.701-1.701C302.252,138.26,303.013,139.021,303.013,139.961"/>
		<path clip-path="url(#SVGID_2_)" fill="#CCC2C5" d="M303.013,152.416c0,0.939-0.761,1.702-1.7,1.702
			c-0.94,0-1.701-0.762-1.701-1.702c0-0.94,0.761-1.703,1.701-1.703C302.252,150.713,303.013,151.476,303.013,152.416"/>
		<path clip-path="url(#SVGID_2_)" fill="#333333" d="M278.581,94.373c0,3.23,2.627,5.86,5.857,5.86c2.953,0,5.377-2.205,5.776-5.05
			h1.974c0.398,2.846,2.825,5.05,5.777,5.05c3.23,0,5.858-2.63,5.858-5.86c0-3.231-2.628-5.862-5.858-5.862
			c-2.952,0-5.379,2.206-5.777,5.051h-1.974c-0.399-2.845-2.823-5.051-5.776-5.051C281.208,88.511,278.581,91.142,278.581,94.373
			 M293.728,94.373c0-2.338,1.901-4.24,4.238-4.24c2.336,0,4.237,1.902,4.237,4.24c0,2.336-1.901,4.238-4.237,4.238
			C295.629,98.611,293.728,96.709,293.728,94.373 M280.202,94.373c0-2.338,1.901-4.24,4.236-4.24c2.336,0,4.236,1.902,4.236,4.24
			c0,2.336-1.9,4.238-4.236,4.238C282.104,98.611,280.202,96.709,280.202,94.373"/>
		<path clip-path="url(#SVGID_2_)" fill="#6F3D5A" d="M116.499,420H96.473v-14.033h10.908l11.148,6.275
			C122.246,414.333,120.761,420,116.499,420"/>
		<path clip-path="url(#SVGID_2_)" fill="#6F3D5A" d="M43.099,420H23.073v-14.033H33.98l11.149,6.275
			C48.846,414.333,47.361,420,43.099,420"/>
		<path clip-path="url(#SVGID_2_)" fill="#B7B9F0" d="M134.358,151.201l-13.709,23.771l-11.2-23.487
			c-4.272-8.96-13.311-14.666-23.233-14.666H66.745h-2.617v11.016l-15.104-11.016H35.504h-3.73
			c-12.258,0-22.817,8.649-25.236,20.674L0.302,188.48c-1.881,9.35,5.264,18.083,14.797,18.083h9.447l1.16,5.843h61.741
			l7.131-35.915l15.432,20.546c2.239,2.979,5.562,5.095,9.271,5.435c6.25,0.572,11.738-3.281,13.524-8.927l11.645-36.815
			L134.358,151.201z"/>
		<path clip-path="url(#SVGID_2_)" fill="#111F54" d="M64.127,124.031v12.787h2.617c5.001,0,9.057-4.057,9.057-9.062h-4.883v-4.531
			c-1.351,0.493-2.79,0.805-4.311,0.805H64.127z"/>
		<path clip-path="url(#SVGID_2_)" fill="#111F54" d="M49.024,124.031v-8.138c-3.85,0-6.97-3.123-6.97-6.975s3.121-6.975,6.97-6.975
			l13.243-9.172v9.172H79.23c0-10.182-8.248-18.436-18.424-18.436h-6.888c-10.862,0-19.669,8.811-19.669,19.68v24.569h-7.802
			c0,5.005,4.056,9.062,9.057,9.062h13.52V124.031z"/>
		<path clip-path="url(#SVGID_2_)" fill="#FFD1AA" d="M62.267,101.944v-9.172l-13.243,9.172c-3.849,0-6.97,3.123-6.97,6.976
			c0,3.852,3.121,6.975,6.97,6.975v8.138v12.788l15.104,11.015v-11.015v-12.788h2.479c1.521,0,2.96-0.312,4.311-0.806
			c4.839-1.768,8.313-6.372,8.313-11.825v-9.457H62.267z"/>
		<path clip-path="url(#SVGID_2_)" fill="#081F3E" d="M25.705,212.407h61.741c5.487,11.922,19.935,193.56,19.935,193.56H96.473
			L62.195,250.108H50.958L33.981,405.967H23.073l-5.062-155.483C17.585,237.365,20.219,224.329,25.705,212.407z"/>
		<polygon clip-path="url(#SVGID_2_)" fill="#FFD1AA" points="48.647,193.321 48.647,204.339 66.352,204.339 66.352,196.885 
			59.143,189.432 		"/>
		<polygon clip-path="url(#SVGID_2_)" fill="#FFD1AA" points="134.358,151.201 133.457,141.282 144.451,136.818 151.48,140.922 
			144.451,156.731 		"/>
		
			<rect x="16.105" y="188.226" transform="matrix(0.9743 0.2251 -0.2251 0.9743 43.4066 -2.1396)" clip-path="url(#SVGID_2_)" fill="#FFFFFF" width="29.966" height="2.162"/>
		<polygon clip-path="url(#SVGID_2_)" fill="#8CDEF1" points="81.751,0 81.751,44.327 81.751,56.94 104.532,44.327 201.421,44.327 
			201.421,0 		"/>
		<rect x="93.18" y="9.121" clip-path="url(#SVGID_2_)" fill="#4DCCE9" width="96.816" height="3.817"/>
		<rect x="93.18" y="20.255" clip-path="url(#SVGID_2_)" fill="#4DCCE9" width="96.816" height="3.818"/>
		<rect x="93.18" y="31.39" clip-path="url(#SVGID_2_)" fill="#4DCCE9" width="96.816" height="3.817"/>
		<polygon clip-path="url(#SVGID_2_)" fill="#8CDEF1" points="149.801,73.256 149.801,102.292 225.607,102.292 248.374,114.898 
			248.374,102.292 248.374,73.256 		"/>
		<rect x="159.548" y="80.304" clip-path="url(#SVGID_2_)" fill="#4DCCE9" width="79.077" height="3.815"/>
		<rect x="159.548" y="91.431" clip-path="url(#SVGID_2_)" fill="#4DCCE9" width="79.077" height="3.814"/>
	</g>
</g>
</svg>
